<svg width="83" height="83" viewBox="0 0 83 83" fill="none" xmlns="http://www.w3.org/2000/svg">
<path d="M42.1286 5C37.5419 5 32.7747 5.86751 27.9713 7.71096C19.2673 11.0364 12.4776 17.9042 8.90212 26.3263C7.81864 28.8926 6.98797 31.5675 6.55458 34.3507C4.67656 46.0982 7.85476 54.2311 11.7914 59.8338C13.1638 61.7857 14.6084 63.4123 15.9808 64.822C20.5314 69.4487 18.0755 69.4125 12.4053 72.7018C12.1525 72.8464 12.0081 72.991 11.7914 73.1356C9.69666 74.6899 10.2745 76.208 11.7914 76.9309C12.3692 77.184 13.0554 77.3647 13.7416 77.3647H40.9007C60.5838 77.3647 77.5944 62.1833 78.2806 42.4836C78.9668 21.9164 62.5341 5 42.1286 5ZM41.1174 61.7857C38.3004 61.7857 36.0612 59.5085 36.0612 56.7252C36.0612 53.942 38.3365 51.6647 41.1174 51.6647C43.8983 51.6647 46.1736 53.942 46.1736 56.7252C46.1736 59.5085 43.9344 61.7857 41.1174 61.7857ZM46.2097 41.1462C46.2097 43.9656 43.9344 46.2067 41.1535 46.2067C38.3726 46.2067 36.0973 43.9295 36.0973 41.1462V25.6756C36.0973 22.8562 38.3726 20.6152 41.1535 20.6152C43.9344 20.6152 46.2097 22.8924 46.2097 25.6756V41.1462Z" fill="white"/>
</svg>
