<svg xmlns="http://www.w3.org/2000/svg" width="90" height="120" viewBox="0 0 90 120" fill="none"><rect x="7.10547" y="7.05884" width="75.7895" height="105.882" rx="5" fill="url(#paint0_linear_6855_15972)"></rect><path d="M51.6101 58.8451C51.3605 57.9352 51.6339 56.659 53.1313 55.7845C53.2264 55.7373 53.3096 55.6782 53.3928 55.6309C50.6356 52.5704 49.5897 48.8481 50.279 44.5822C50.4454 43.5305 50.7544 42.5261 51.1704 41.5571C50.8733 41.5217 50.5643 41.4862 50.2196 41.4862C47.7833 41.4862 46.5592 42.5261 46.5592 44.6058V68.9721L32.7018 44.9722C31.4777 42.8333 29.7901 41.498 26.4268 41.498C23.0634 41.498 21.3164 42.8333 21.3164 45.7166V76.4876C21.3164 78.5673 22.5405 79.6072 24.9768 79.6072C27.4132 79.6072 28.5779 78.5673 28.5779 76.4876V51.6014L43.1483 76.0267C44.5388 78.4492 46.0481 79.6072 49.0668 79.6072C52.2638 79.6072 53.8801 78.2246 53.8801 75.3886V60.783C52.7748 60.5703 51.8834 59.8377 51.6101 58.8451Z" fill="white"></path><path d="M63.8868 35.2941C62.3775 35.2941 60.8087 35.5777 59.2281 36.1804C56.3639 37.2675 54.1296 39.5127 52.953 42.266C52.5965 43.105 52.3232 43.9795 52.1805 44.8894C51.5625 48.7298 52.6084 51.3886 53.9038 53.2202C54.3554 53.8583 54.8308 54.3901 55.2824 54.8509C56.7799 56.3635 55.9717 56.3517 54.1058 57.427C54.0226 57.4743 53.9751 57.5215 53.9038 57.5688C53.2145 58.0769 53.4047 58.5732 53.9038 58.8096C54.094 58.8923 54.3198 58.9514 54.5456 58.9514H63.4827C69.9598 58.9514 75.5574 53.9883 75.7832 47.5482C76.0091 40.8244 70.6016 35.2941 63.8868 35.2941ZM63.5541 53.8583C62.6271 53.8583 61.8902 53.1139 61.8902 52.204C61.8902 51.2941 62.6389 50.5496 63.5541 50.5496C64.4692 50.5496 65.2179 51.2941 65.2179 52.204C65.2179 53.1139 64.481 53.8583 63.5541 53.8583ZM65.2298 47.1109C65.2298 48.0326 64.481 48.7653 63.5659 48.7653C62.6508 48.7653 61.9021 48.0208 61.9021 47.1109V42.0533C61.9021 41.1316 62.6508 40.399 63.5659 40.399C64.481 40.399 65.2298 41.1434 65.2298 42.0533V47.1109Z" fill="white"></path><g clip-path="url(#clip0_6855_15972)"><path d="M89.5948 105.408C89.7183 105.337 89.8208 105.235 89.8921 105.112C89.9634 104.989 90.0009 104.849 90.0009 104.707C90.0009 104.564 89.9634 104.425 89.8921 104.301C89.8208 104.178 89.7183 104.076 89.5948 104.005L89.3419 103.865L88.4174 103.333L89.2183 102.631L89.4375 102.438C89.5443 102.343 89.6243 102.223 89.6695 102.088C89.7148 101.953 89.7236 101.808 89.6951 101.669C89.6666 101.529 89.6018 101.4 89.5072 101.294C89.4127 101.187 89.2917 101.107 89.1565 101.063L88.8755 100.97L87.7402 100.59L88.4525 99.627L88.6268 99.3927C88.7113 99.2783 88.7642 99.1437 88.7801 99.0025C88.796 98.8612 88.7744 98.7182 88.7174 98.588C88.6604 98.4577 88.5701 98.3447 88.4556 98.2603C88.341 98.176 88.2062 98.1232 88.0648 98.1074L87.7753 98.0737L86.5291 97.9334L87.0433 96.7912L87.1627 96.5246C87.2209 96.3949 87.2439 96.2523 87.2294 96.111C87.2149 95.9696 87.1634 95.8346 87.0801 95.7194C86.9969 95.6043 86.8847 95.513 86.7549 95.4548C86.6252 95.3966 86.4823 95.3736 86.3408 95.388L86.05 95.4174L84.9667 95.5269L85.2056 94.4661L85.2688 94.1854C85.2997 94.0468 85.2937 93.9024 85.2512 93.7668C85.2088 93.6312 85.1314 93.5091 85.0268 93.4127C84.9222 93.3164 84.7941 93.2492 84.6554 93.2178C84.5166 93.1865 84.372 93.1921 84.2361 93.2341L83.9551 93.3211L82.9041 93.6494L82.9238 92.5507V92.2588C82.9265 92.1167 82.8917 91.9764 82.8229 91.852C82.7541 91.7275 82.6537 91.6234 82.5318 91.55C82.4099 91.4766 82.2708 91.4366 82.1285 91.4339C81.9862 91.4313 81.8457 91.4661 81.7211 91.5348L81.4654 91.6751L80.4215 92.2518L80.1939 91.0816L80.1377 90.8009C80.1107 90.6613 80.0473 90.5313 79.954 90.4239C79.8607 90.3165 79.7407 90.2356 79.6061 90.1892C79.4715 90.1429 79.3271 90.1327 79.1873 90.1598C79.0475 90.1869 78.9174 90.2502 78.8099 90.3435L78.5893 90.5343L77.6887 91.3173L77.2223 90.22L77.1085 89.952C77.0527 89.8212 76.9634 89.7073 76.8497 89.6217C76.7359 89.5362 76.6016 89.482 76.4603 89.4647C76.3189 89.4474 76.1755 89.4674 76.0444 89.5229C75.9133 89.5784 75.7991 89.6673 75.7133 89.7808L75.5377 90.0137L74.7621 91.0423H74.6426L73.8854 90.0011L73.7125 89.7654C73.6294 89.6502 73.5173 89.5588 73.3876 89.5005C73.258 89.4422 73.1152 89.419 72.9737 89.4332C72.8322 89.4474 72.6969 89.4986 72.5815 89.5815C72.466 89.6644 72.3745 89.7762 72.3159 89.9057L72.1979 90.1723L71.7034 91.2822L70.7971 90.4726L70.5794 90.2775C70.4733 90.1826 70.3441 90.1172 70.2047 90.088C70.0653 90.0588 69.9206 90.0668 69.7853 90.1112C69.65 90.1556 69.5287 90.2348 69.4338 90.3409C69.3389 90.4469 69.2736 90.5761 69.2446 90.7153L69.1856 90.996L68.9228 92.2504L68.8933 92.2645L67.7693 91.6386L67.5136 91.4983C67.3894 91.4291 67.2491 91.3938 67.1069 91.3959C66.9646 91.3979 66.8255 91.4374 66.7033 91.5102C66.5811 91.583 66.4803 91.6866 66.4109 91.8106C66.3416 91.9346 66.3061 92.0747 66.3081 92.2168V92.5086L66.3236 93.6157L65.2656 93.2818L64.9846 93.1934C64.8488 93.1507 64.7042 93.1445 64.5653 93.1753C64.4263 93.206 64.2979 93.2727 64.1929 93.3686C64.0879 93.4645 64.01 93.5863 63.9669 93.7218C63.9239 93.8573 63.9172 94.0017 63.9477 94.1405L64.0109 94.4212L64.2469 95.4918L63.1539 95.3782L62.8644 95.3473C62.7229 95.3326 62.5799 95.3554 62.45 95.4133C62.32 95.4712 62.2075 95.5622 62.1239 95.6772C62.0402 95.7922 61.9882 95.9271 61.9732 96.0684C61.9582 96.2097 61.9806 96.3525 62.0383 96.4825L62.1577 96.7491L62.6804 97.9208L62.6677 97.9446L61.3906 98.0933L61.0997 98.127C60.958 98.1427 60.823 98.1954 60.7082 98.2799C60.5934 98.3643 60.503 98.4775 60.446 98.608C60.389 98.7385 60.3675 98.8817 60.3836 99.0232C60.3997 99.1646 60.4528 99.2994 60.5377 99.4138L60.7119 99.6481L61.4046 100.578L60.3031 100.946L60.0221 101.039C59.8868 101.084 59.7659 101.163 59.6713 101.27C59.5767 101.376 59.5119 101.506 59.4834 101.645C59.4549 101.785 59.4638 101.929 59.509 102.064C59.5542 102.199 59.6343 102.32 59.7411 102.414L59.9602 102.607L60.7709 103.324L59.8324 103.865L59.5795 104.005C59.4564 104.076 59.3542 104.179 59.2832 104.302C59.2122 104.425 59.1748 104.564 59.1748 104.707C59.1748 104.849 59.2122 104.988 59.2832 105.111C59.3542 105.235 59.4564 105.337 59.5795 105.408L59.8324 105.549L60.7569 106.082L59.9574 106.783L59.7383 106.976C59.6315 107.07 59.5514 107.19 59.5062 107.325C59.461 107.46 59.4521 107.605 59.4806 107.744C59.5091 107.884 59.5739 108.013 59.6685 108.12C59.763 108.226 59.884 108.306 60.0193 108.351L60.3003 108.443L61.4355 108.825L60.7232 109.786L60.5489 110.021C60.4645 110.135 60.4117 110.27 60.3959 110.411C60.38 110.552 60.4016 110.695 60.4585 110.826C60.5155 110.956 60.6057 111.069 60.7202 111.154C60.8347 111.238 60.9695 111.291 61.111 111.307L61.4004 111.34L62.6466 111.48L62.1324 112.623L62.013 112.889C61.9549 113.018 61.932 113.161 61.9465 113.302C61.9611 113.444 62.0125 113.579 62.0958 113.694C62.179 113.809 62.2911 113.901 62.4208 113.959C62.5505 114.017 62.6933 114.041 62.8349 114.027L63.1257 113.997L64.209 113.886L63.9702 114.947L63.9069 115.228C63.8758 115.366 63.8818 115.511 63.9242 115.646C63.9667 115.782 64.0441 115.904 64.1487 116C64.2534 116.097 64.3816 116.164 64.5204 116.195C64.6592 116.226 64.8038 116.22 64.9396 116.178L65.2206 116.091L66.2716 115.762L66.2505 116.861V117.153C66.2481 117.295 66.2831 117.435 66.3521 117.56C66.4211 117.684 66.5216 117.788 66.6436 117.862C66.7655 117.935 66.9047 117.975 67.047 117.978C67.1894 117.98 67.3299 117.946 67.4546 117.877L67.7103 117.737L68.7542 117.16L68.9819 118.33L69.0366 118.611C69.0639 118.75 69.1275 118.88 69.2209 118.988C69.3144 119.095 69.4345 119.176 69.5691 119.222C69.7038 119.269 69.8483 119.279 69.9881 119.252C70.1279 119.225 70.2582 119.161 70.3658 119.068L70.585 118.877L71.487 118.096L71.9535 119.193L72.0673 119.461C72.123 119.592 72.2122 119.706 72.3259 119.791C72.4396 119.877 72.5738 119.931 72.7151 119.948C72.8563 119.965 72.9996 119.945 73.1306 119.889C73.2615 119.834 73.3755 119.745 73.461 119.631L73.6367 119.398L74.4122 118.37H74.5317L75.2904 119.411L75.4618 119.646C75.5449 119.762 75.657 119.853 75.7867 119.911C75.9163 119.97 76.0591 119.993 76.2006 119.979C76.3421 119.964 76.4774 119.913 76.5928 119.83C76.7083 119.747 76.7998 119.636 76.8584 119.506L76.9778 119.239L77.4723 118.13L78.3786 118.941L78.5964 119.134C78.7024 119.229 78.8316 119.294 78.9708 119.323C79.11 119.352 79.2544 119.344 79.3895 119.299C79.5246 119.255 79.6456 119.176 79.7404 119.07C79.8353 118.964 79.9005 118.835 79.9297 118.696L79.9901 118.416L80.2529 117.153L80.2824 117.139L81.4064 117.766L81.6607 117.906C81.785 117.976 81.9254 118.012 82.0678 118.01C82.2103 118.008 82.3497 117.968 82.4721 117.896C82.5944 117.823 82.6954 117.719 82.7649 117.595C82.8343 117.471 82.8697 117.33 82.8676 117.188V116.896L82.8522 115.789L83.9101 116.123L84.1911 116.211C84.3267 116.254 84.4711 116.26 84.6099 116.23C84.7487 116.199 84.877 116.132 84.9819 116.037C85.0868 115.941 85.1646 115.819 85.2076 115.684C85.2505 115.549 85.2571 115.404 85.2266 115.266L85.1648 114.985L84.9274 113.913L86.0205 114.028L86.3113 114.057C86.4528 114.073 86.5958 114.05 86.7259 113.992C86.8559 113.935 86.9684 113.844 87.0521 113.729C87.1357 113.614 87.1875 113.479 87.2023 113.338C87.217 113.196 87.1942 113.053 87.136 112.924L87.018 112.657L86.4954 111.484L86.508 111.46L87.7852 111.311L88.076 111.278C88.2179 111.262 88.3532 111.21 88.4683 111.126C88.5833 111.041 88.674 110.928 88.731 110.797C88.7881 110.667 88.8095 110.523 88.7932 110.382C88.7769 110.24 88.7233 110.105 88.638 109.991L88.4638 109.757L87.7725 108.826L88.8726 108.459L89.1536 108.366C89.2886 108.321 89.4092 108.241 89.5035 108.135C89.5978 108.028 89.6624 107.899 89.6909 107.759C89.7194 107.62 89.7107 107.476 89.6657 107.341C89.6207 107.206 89.541 107.085 89.4346 106.991L89.2155 106.799L88.4034 106.082L89.3419 105.54L89.5948 105.408Z" fill="#1B1464"></path><path d="M67.9236 107.418C67.9297 107.52 67.9146 107.623 67.879 107.72C67.8435 107.816 67.7883 107.905 67.717 107.979C67.5765 108.111 67.3587 108.175 67.0595 108.175C66.7602 108.175 66.541 108.111 66.4033 107.979C66.3318 107.905 66.2764 107.816 66.2406 107.72C66.2048 107.623 66.1894 107.52 66.1954 107.418V102.046C66.1858 101.942 66.1994 101.836 66.2352 101.738C66.2711 101.639 66.3283 101.55 66.4029 101.476C66.4774 101.402 66.5673 101.346 66.6663 101.311C66.7652 101.275 66.8707 101.263 66.9752 101.273H68.4729C68.8824 101.266 69.2906 101.32 69.684 101.433C69.9988 101.524 70.2918 101.678 70.5453 101.885C70.7702 102.074 70.9465 102.315 71.0595 102.586C71.1748 102.868 71.2326 103.17 71.2296 103.475C71.2338 103.81 71.1737 104.144 71.0525 104.457C70.9378 104.745 70.7563 105.003 70.5228 105.208C70.2632 105.427 69.9602 105.59 69.6335 105.685C69.2227 105.803 68.7965 105.86 68.369 105.852H67.9193L67.9236 107.418ZM68.4532 104.58C68.5912 104.592 68.73 104.574 68.86 104.526C68.99 104.479 69.108 104.403 69.2055 104.305C69.3031 104.207 69.3779 104.088 69.4246 103.958C69.4714 103.828 69.489 103.689 69.4761 103.552C69.4852 103.417 69.4664 103.282 69.4209 103.155C69.3755 103.028 69.3044 102.912 69.212 102.814C69.0349 102.645 68.7638 102.56 68.3985 102.56H67.9236V104.58H68.4532Z" fill="white"></path><path d="M73.532 107.418C73.5383 107.52 73.5235 107.623 73.4884 107.719C73.4534 107.816 73.3989 107.904 73.3283 107.979C73.1374 108.107 72.9127 108.175 72.6827 108.175C72.4527 108.175 72.228 108.107 72.0371 107.979C71.9656 107.905 71.9101 107.816 71.8743 107.72C71.8386 107.623 71.8232 107.52 71.8292 107.418V102.046C71.8195 101.942 71.8331 101.836 71.869 101.738C71.9049 101.639 71.9621 101.55 72.0366 101.476C72.1111 101.402 72.2011 101.346 72.3 101.311C72.399 101.275 72.5045 101.263 72.6089 101.273H74.1362C74.5706 101.265 75.0042 101.316 75.4246 101.426C75.7458 101.507 76.048 101.65 76.314 101.847C76.5367 102.016 76.7142 102.238 76.831 102.492C76.9436 102.747 77.0006 103.023 76.9982 103.302C76.9998 103.513 76.9709 103.723 76.9125 103.926C76.8591 104.109 76.7786 104.283 76.6737 104.441C76.5701 104.597 76.4425 104.735 76.2957 104.851C76.1451 104.97 75.9799 105.07 75.8039 105.147L76.8774 106.853C76.9341 106.942 76.9812 107.036 77.0179 107.134C77.0445 107.206 77.0583 107.282 77.0586 107.359C77.0594 107.474 77.0309 107.588 76.9757 107.69C76.9208 107.792 76.8463 107.882 76.7565 107.955C76.6622 108.031 76.5558 108.091 76.4418 108.132C76.3258 108.175 76.2031 108.197 76.0793 108.196C75.9719 108.198 75.865 108.18 75.7646 108.142C75.6759 108.106 75.5959 108.051 75.53 107.982C75.5033 107.955 75.4794 107.93 75.4583 107.904C75.437 107.88 75.4177 107.855 75.4007 107.827C75.3838 107.801 75.367 107.771 75.3501 107.74C75.334 107.707 75.3157 107.674 75.2953 107.643L74.132 105.539H73.5278L73.532 107.418ZM74.1221 104.27C74.2874 104.273 74.4522 104.251 74.6111 104.206C74.7382 104.169 74.857 104.108 74.9609 104.026C75.052 103.951 75.123 103.855 75.1675 103.745C75.2136 103.633 75.2366 103.512 75.2349 103.39C75.2364 103.271 75.2155 103.152 75.1731 103.04C75.131 102.934 75.0611 102.843 74.9708 102.774C74.8609 102.696 74.7369 102.639 74.6055 102.607C74.4275 102.565 74.2448 102.545 74.0617 102.548H73.532V104.263L74.1221 104.27Z" fill="white"></path><path d="M77.4498 104.809C77.4417 104.288 77.5249 103.77 77.6956 103.278C77.8453 102.85 78.0849 102.459 78.3981 102.132C78.7071 101.815 79.0816 101.57 79.4954 101.413C79.9561 101.241 80.4451 101.156 80.937 101.163C81.4094 101.157 81.879 101.237 82.3223 101.401C82.7217 101.548 83.0837 101.782 83.3831 102.084C83.6843 102.393 83.9144 102.764 84.0575 103.171C84.2198 103.635 84.2993 104.123 84.2922 104.614C84.3002 105.133 84.2165 105.65 84.0449 106.141C83.8948 106.567 83.6553 106.956 83.3424 107.283C83.0322 107.598 82.6574 107.843 82.2437 108C81.7849 108.172 81.2978 108.257 80.8077 108.25C80.3339 108.257 79.8628 108.176 79.4182 108.012C79.0195 107.866 78.6579 107.633 78.3588 107.332C78.0599 107.023 77.83 106.654 77.6844 106.25C77.5213 105.787 77.4419 105.299 77.4498 104.809ZM79.2313 104.7C79.2258 105.025 79.2699 105.35 79.362 105.662C79.4344 105.912 79.5546 106.146 79.716 106.35C79.8563 106.528 80.0356 106.672 80.2401 106.771C80.4413 106.862 80.6597 106.91 80.8808 106.91C81.1018 106.91 81.3203 106.862 81.5215 106.771C81.7239 106.676 81.9015 106.536 82.0399 106.361C82.1995 106.159 82.3175 105.928 82.387 105.68C82.4761 105.369 82.5182 105.047 82.512 104.723C82.5171 104.399 82.4745 104.076 82.3856 103.764C82.3139 103.512 82.1931 103.278 82.0301 103.073C81.8889 102.895 81.7086 102.751 81.5032 102.652C81.3033 102.558 81.0849 102.51 80.8639 102.512C80.644 102.512 80.4268 102.56 80.2275 102.652C80.0254 102.747 79.8479 102.886 79.709 103.061C79.5492 103.264 79.4304 103.496 79.3592 103.744C79.2689 104.054 79.2258 104.376 79.2313 104.7Z" fill="white"></path></g><defs><linearGradient id="paint0_linear_6855_15972" x1="38.6449" y1="30.7894" x2="97.4487" y2="58.7447" gradientUnits="userSpaceOnUse"><stop stop-color="#23C865"></stop><stop offset="1" stop-color="#02C697"></stop></linearGradient><clipPath id="clip0_6855_15972"><rect width="30.7895" height="30.5882" fill="white" transform="translate(59.2109 89.4117)"></rect></clipPath></defs></svg>