<?xml version="1.0" encoding="utf-8"?>
<!-- Generator: Adobe Illustrator 16.0.0, SVG Export Plug-In . SVG Version: 6.00 Build 0)  -->
<!DOCTYPE svg PUBLIC "-//W3C//DTD SVG 1.1//EN" "http://www.w3.org/Graphics/SVG/1.1/DTD/svg11.dtd">
<svg version="1.1" id="Layer_1" xmlns="http://www.w3.org/2000/svg" xmlns:xlink="http://www.w3.org/1999/xlink" x="0px" y="0px"
	 width="256px" height="256px" viewBox="0 0 256 256" enable-background="new 0 0 256 256" xml:space="preserve">
<rect x="-1" fill="#61FFAE" width="258" height="257"/>
<g>
	<path fill="#FFFFFF" d="M177.128,160.892v17.226c-12.621,9.645-27.01,14.463-43.173,14.463c-21.553,0-39.876-7.407-54.976-22.225
		c-15.1-14.814-22.65-32.928-22.65-54.338c0-15.595,3.935-29.17,11.803-40.728c7.869-11.554,17.828-20.523,29.881-26.903
		c10.491-5.529,22.118-8.294,34.878-8.294c11.341,0,21.692,2.2,31.05,6.593c9.923,4.964,18.36,12.229,25.309,21.799
		c6.945,9.57,10.421,21.161,10.421,34.772c0,13.754-3.297,25.521-9.89,35.304s-14.285,14.674-23.074,14.674
		c-10.635,0-15.951-6.875-15.951-20.629v-10.208c0-18.855-6.948-28.286-20.842-28.286c-6.241,0-11.166,2.164-14.781,6.486
		c-3.615,4.327-5.423,9.607-5.423,15.844c0,6.098,2.054,11.059,6.167,14.888c4.111,3.828,9.145,5.742,15.1,5.742
		c5.243,0,9.853-1.559,13.823-4.68v16.589c-4.253,2.838-9.43,4.253-15.525,4.253c-10.208,0-18.821-3.402-25.839-10.208
		s-10.527-15.808-10.527-27.009c0-15.452,6.806-26.724,20.417-33.815c5.104-2.834,11.06-4.253,17.865-4.253
		c12.192,0,21.692,4.539,28.498,13.611c5.243,6.949,7.869,17.439,7.869,31.476v8.508c0,3.12,0.989,4.678,2.977,4.678
		c2.979,0,5.742-3.196,8.295-9.593c2.552-6.396,3.828-13.578,3.828-21.54c0-19.333-7.869-33.619-23.606-42.86h0.212
		c-8.081-4.264-17.438-6.397-28.072-6.397c-10.069,0-19.639,2.559-28.711,7.669c-8.649,5.114-15.705,12.358-21.161,21.733
		c-5.459,9.374-8.188,19.885-8.188,31.529c0,17.187,5.669,31.426,17.014,42.718c11.341,11.291,25.661,16.937,42.959,16.937
		c9.641,0,17.51-1.169,23.607-3.508C162.805,170.568,169.611,166.563,177.128,160.892z"/>
</g>
<ellipse opacity="0.1" fill="#1D1D1B" cx="136.002" cy="218.294" rx="54.784" ry="3.612"/>
</svg>
