<svg width="256" height="256" viewBox="0 0 256 256" fill="none" xmlns="http://www.w3.org/2000/svg">
<g clip-path="url(#clip0)">
<rect width="256" height="256" rx="15" fill="white"/>
<rect width="256" height="256" fill="url(#paint0_linear)"/>
<rect width="6.9344" height="6.9344" rx="3" transform="matrix(-0.707107 0.707107 -0.707341 -0.706873 33.4517 59.3384)" fill="#00C14E"/>
<path fill-rule="evenodd" clip-rule="evenodd" d="M17.0527 50.8598L26.6472 41.2654C27.3537 40.5589 27.3535 39.4136 26.6468 38.7073L17.0491 29.116C16.3424 28.4097 15.1967 28.4099 14.4902 29.1164L4.89571 38.7109C4.18919 39.4174 4.18939 40.5627 4.89614 41.269L14.4938 50.8603C15.2005 51.5666 16.3462 51.5664 17.0527 50.8598ZM28.5667 43.1836C30.333 41.4173 30.3326 38.5541 28.5657 36.7884L18.968 27.1971C17.2012 25.4314 14.337 25.4318 12.5707 27.1981L2.97618 36.7926C1.20989 38.5589 1.21036 41.4222 2.97724 43.1879L12.5749 52.7792C14.3418 54.5449 17.206 54.5444 18.9723 52.7781L28.5667 43.1836Z" fill="#00C14E"/>
<path fill-rule="evenodd" clip-rule="evenodd" d="M47.2333 77.8919L39.455 70.1162C38.7484 69.4098 37.6027 69.4098 36.8961 70.1162L29.1178 77.8919C28.4112 78.5983 28.4112 79.7436 29.1178 80.45L36.8961 88.2257C37.6027 88.9321 38.7484 88.9321 39.455 88.2257L47.2333 80.45C47.9399 79.7436 47.9399 78.5983 47.2333 77.8919ZM41.3742 68.1976C39.6076 66.4316 36.7434 66.4316 34.9768 68.1976L27.1986 75.9733C25.432 77.7393 25.432 80.6026 27.1986 82.3686L34.9769 90.1443C36.7434 91.9103 39.6076 91.9103 41.3742 90.1443L49.1525 82.3686C50.9191 80.6026 50.9191 77.7393 49.1525 75.9733L41.3742 68.1976Z" fill="#00C14E"/>
<path fill-rule="evenodd" clip-rule="evenodd" d="M19.2771 96.0434L-4.76369 72.0105C-5.64699 71.1275 -7.07909 71.1275 -7.96238 72.0105L-32.0032 96.0434C-32.8865 96.9264 -32.8865 98.358 -32.0032 99.241L-7.96238 123.274C-7.07909 124.157 -5.64699 124.157 -4.7637 123.274L19.2771 99.241C20.1604 98.358 20.1604 96.9264 19.2771 96.0434ZM-1.56501 68.8129C-4.21489 66.1639 -8.51119 66.1639 -11.1611 68.8129L-35.2019 92.8457C-37.8518 95.4947 -37.8518 99.7896 -35.2019 102.439L-11.1611 126.471C-8.51119 129.121 -4.21489 129.121 -1.56501 126.471L22.4758 102.439C25.1257 99.7896 25.1257 95.4947 22.4758 92.8457L-1.56501 68.8129Z" fill="#00C14E"/>
<path fill-rule="evenodd" clip-rule="evenodd" d="M-66.8013 -79.2805C-65.4191 -80.7535 -63.1045 -80.8271 -61.6314 -79.4448L50.4084 25.6903C51.8815 27.0725 51.9551 29.3872 50.5728 30.8602C49.1906 32.3332 46.8759 32.4068 45.4029 31.0246L-66.637 -74.1106C-68.11 -75.4928 -68.1836 -77.8075 -66.8013 -79.2805Z" fill="#00C14E"/>
<path fill-rule="evenodd" clip-rule="evenodd" d="M-116.038 -173.815C-114.672 -175.304 -112.358 -175.403 -110.87 -174.038L126.626 43.847C128.114 45.2126 128.214 47.5263 126.848 49.0148C125.482 50.5033 123.169 50.6029 121.68 49.2373L-115.815 -168.647C-117.304 -170.013 -117.403 -172.327 -116.038 -173.815Z" fill="#00C14E"/>
<path fill-rule="evenodd" clip-rule="evenodd" d="M-16.0888 -57.0838C-14.7024 -58.5529 -12.3876 -58.62 -10.9184 -57.2337L88.2826 36.377C89.7517 37.7634 89.8189 40.0782 88.4325 41.5474C87.0461 43.0165 84.7313 43.0836 83.2621 41.6973L-15.9389 -51.9134C-17.408 -53.2998 -17.4751 -55.6146 -16.0888 -57.0838Z" fill="#00C14E"/>
<rect width="6.9344" height="6.9344" rx="3" transform="matrix(0.707107 -0.707107 0.70734 0.706873 226.201 197.304)" fill="#00C14E"/>
<path fill-rule="evenodd" clip-rule="evenodd" d="M234.169 216.903L224.276 226.795C223.548 227.523 223.548 228.704 224.277 229.432L234.172 239.321C234.901 240.05 236.082 240.049 236.811 239.321L246.703 229.429C247.431 228.7 247.431 227.52 246.702 226.791L236.807 216.902C236.078 216.174 234.897 216.174 234.169 216.903ZM222.297 224.817C220.476 226.638 220.477 229.59 222.298 231.411L232.194 241.3C234.016 243.12 236.969 243.12 238.79 241.299L248.682 231.407C250.503 229.585 250.503 226.633 248.681 224.813L238.785 214.924C236.964 213.103 234.011 213.104 232.19 214.925L222.297 224.817Z" fill="#00C14E"/>
<path fill-rule="evenodd" clip-rule="evenodd" d="M231.875 170.317L256.662 195.096C257.573 196.006 259.049 196.006 259.96 195.096L284.747 170.318C285.657 169.407 285.657 167.931 284.747 167.021L259.96 142.242C259.049 141.332 257.573 141.332 256.662 142.242L231.875 167.021C230.965 167.931 230.965 169.407 231.875 170.317ZM253.364 198.393C256.096 201.124 260.526 201.124 263.258 198.393L288.045 173.614C290.777 170.883 290.777 166.455 288.045 163.724L263.258 138.945C260.526 136.214 256.096 136.214 253.364 138.945L228.577 163.724C225.845 166.455 225.845 170.883 228.577 173.614L253.364 198.393Z" fill="#00C14E"/>
<path d="M161.059 123.039C160.301 120.256 161.131 116.352 165.682 113.677C165.971 113.533 166.224 113.352 166.477 113.208C158.098 103.846 154.919 92.4596 157.014 79.4109C157.52 76.1938 158.459 73.1214 159.723 70.1574C158.82 70.049 157.881 69.9406 156.834 69.9406C149.43 69.9406 145.71 73.1214 145.71 79.4831V154.017L103.599 80.6037C99.879 74.0612 94.7506 69.9767 84.5298 69.9767C74.309 69.9767 69 74.0612 69 82.8809V177.006C69 183.367 72.7199 186.548 80.1237 186.548C87.5274 186.548 91.0668 183.367 91.0668 177.006V100.882L135.345 175.596C139.57 183.006 144.157 186.548 153.33 186.548C163.046 186.548 167.957 182.319 167.957 173.644V128.967C164.599 128.317 161.89 126.076 161.059 123.039Z" fill="white"/>
<path d="M198.367 51C193.78 51 189.013 51.8675 184.21 53.711C175.506 57.0364 168.716 63.9042 165.14 72.3263C164.057 74.8926 163.226 77.5675 162.793 80.3507C160.915 92.0982 164.093 100.231 168.03 105.834C169.402 107.786 170.847 109.412 172.219 110.822C176.77 115.449 174.314 115.413 168.644 118.702C168.391 118.846 168.246 118.991 168.03 119.136C165.935 120.69 166.513 122.208 168.03 122.931C168.608 123.184 169.294 123.365 169.98 123.365H197.139C216.822 123.365 233.833 108.183 234.519 88.4836C235.205 67.9164 218.772 51 198.367 51ZM197.356 107.786C194.539 107.786 192.299 105.508 192.299 102.725C192.299 99.942 194.575 97.6647 197.356 97.6647C200.137 97.6647 202.412 99.942 202.412 102.725C202.412 105.508 200.173 107.786 197.356 107.786ZM202.448 87.1462C202.448 89.9656 200.173 92.2067 197.392 92.2067C194.611 92.2067 192.336 89.9295 192.336 87.1462V71.6756C192.336 68.8562 194.611 66.6152 197.392 66.6152C200.173 66.6152 202.448 68.8924 202.448 71.6756V87.1462Z" fill="white"/>
</g>
<defs>
<linearGradient id="paint0_linear" x1="106.533" y1="57.3752" x2="275.512" y2="169.604" gradientUnits="userSpaceOnUse">
<stop stop-color="#23C865"/>
<stop offset="1" stop-color="#02C697"/>
</linearGradient>
<clipPath id="clip0">
<rect width="256" height="256" rx="15" fill="white"/>
</clipPath>
</defs>
</svg>
